<svg width="18" height="16" viewBox="0 0 18 16" fill="none" xmlns="http://www.w3.org/2000/svg">
<path d="M8.95833 2.47197L8.508 2.90538C8.62583 3.0278 8.78841 3.09697 8.95833 3.09697C9.12825 3.09697 9.29083 3.0278 9.40866 2.90538L8.95833 2.47197ZM6.81337 13.1564C5.55032 12.1607 4.16922 11.1884 3.07357 9.95461C1.99935 8.74494 1.25 7.33353 1.25 5.50236H0C0 7.72361 0.925416 9.41819 2.13893 10.7846C3.33102 12.1269 4.85064 13.2008 6.03952 14.138L6.81337 13.1564ZM1.25 5.50236C1.25 3.70997 2.26281 2.20688 3.6453 1.57493C4.98839 0.96101 6.79305 1.12359 8.508 2.90538L9.40866 2.03855C7.37375 -0.0756238 5.01174 -0.424065 3.12563 0.438076C1.27892 1.28221 0 3.2423 0 5.50236H1.25ZM6.03952 14.138C6.46637 14.4745 6.92462 14.8334 7.389 15.1047C7.85325 15.3759 8.383 15.5964 8.95833 15.5964V14.3464C8.70033 14.3464 8.39675 14.2459 8.01967 14.0254C7.64275 13.8052 7.25173 13.5019 6.81337 13.1564L6.03952 14.138ZM11.8772 14.138C13.066 13.2008 14.5857 12.1269 15.7777 10.7846C16.9912 9.41819 17.9167 7.72361 17.9167 5.50236H16.6667C16.6667 7.33353 15.9173 8.74494 14.8431 9.95461C13.7474 11.1884 12.3663 12.1607 11.1033 13.1564L11.8772 14.138ZM17.9167 5.50236C17.9167 3.2423 16.6377 1.28221 14.791 0.438076C12.9049 -0.424065 10.5429 -0.0756238 8.508 2.03855L9.40866 2.90538C11.1236 1.12359 12.9282 0.96101 14.2713 1.57493C15.6538 2.20688 16.6667 3.70997 16.6667 5.50236H17.9167ZM11.1033 13.1564C10.6649 13.5019 10.2739 13.8052 9.897 14.0254C9.51991 14.2459 9.21633 14.3464 8.95833 14.3464V15.5964C9.53366 15.5964 10.0634 15.3759 10.5277 15.1047C10.9921 14.8334 11.4502 14.4745 11.8772 14.138L11.1033 13.1564Z" fill="#55CDB5"/>
</svg>
